<?xml version="1.0" standalone="no"?><!DOCTYPE svg PUBLIC "-//W3C//DTD SVG 1.1//EN" "http://www.w3.org/Graphics/SVG/1.1/DTD/svg11.dtd"><svg t="1623916277528" class="icon" viewBox="0 0 1024 1024" version="1.1" xmlns="http://www.w3.org/2000/svg" p-id="11569" xmlns:xlink="http://www.w3.org/1999/xlink" width="200" height="200"><defs><style type="text/css"></style></defs><path d="M682.618 959.888H341.368l42.536-213.138L640 746.688z" fill="#CCD1D9" p-id="11570"></path><path d="M1023.882 767.934c0 11.81-9.562 21.306-21.34 21.306H21.44c-11.778 0-21.324-9.496-21.324-21.306V85.418c0-11.778 9.544-21.306 21.324-21.306h981.102c11.778 0 21.34 9.528 21.34 21.306v682.516zM682.618 959.888H341.368c-11.78 0-21.324-9.558-21.324-21.306 0-11.81 9.544-21.372 21.324-21.372h341.25c11.778 0 21.338 9.56 21.338 21.372 0 11.748-9.562 21.306-21.338 21.306z" fill="#E6E9ED" p-id="11571"></path><path d="M1002.542 64.112H21.44C9.662 64.112 0.116 73.64 0.116 85.418v575.852h1023.766V85.418c0-11.778-9.562-21.306-21.34-21.306z" fill="#A0D468" p-id="11572"></path><path d="M85.426 149.404h853.132v298.586H85.426z" fill="#FFCE54" p-id="11573"></path><path d="M533.322 725.256c0 11.81-9.56 21.37-21.338 21.37s-21.324-9.558-21.324-21.37c0-11.748 9.544-21.306 21.324-21.306s21.338 9.558 21.338 21.306z" fill="#434A54" p-id="11574"></path><path d="M85.426 490.668h426.558v170.6H85.426z" fill="#FFCE54" p-id="11575"></path><path d="M874.572 533.316H575.984a21.31 21.31 0 0 1-21.34-21.34c0-11.778 9.532-21.308 21.34-21.308h298.588c11.78 0 21.338 9.53 21.338 21.308 0 11.812-9.558 21.34-21.338 21.34zM789.248 320.022H234.72c-11.78 0-21.324-9.53-21.324-21.308s9.544-21.338 21.324-21.338h554.528c11.81 0 21.338 9.56 21.338 21.338s-9.528 21.308-21.338 21.308zM874.572 618.656H575.984c-11.808 0-21.34-9.56-21.34-21.372 0-11.746 9.532-21.308 21.34-21.308h298.588c11.78 0 21.338 9.562 21.338 21.308 0 11.812-9.558 21.372-21.338 21.372z" fill="#434A54" p-id="11576"></path></svg>